<svg width="192" height="66" viewBox="0 0 192 66" fill="none" xmlns="http://www.w3.org/2000/svg">
<path d="M22.1545 13.056C25.1838 13.056 27.8292 13.7173 30.0905 15.04C32.3945 16.3627 34.1012 18.0267 35.2105 20.032V13.632H41.0985V49.472C41.0985 52.672 40.4158 55.5093 39.0505 57.984C37.6852 60.5013 35.7225 62.464 33.1625 63.872C30.6452 65.28 27.7012 65.984 24.3305 65.984C19.7225 65.984 15.8825 64.896 12.8105 62.72C9.7385 60.544 7.92516 57.5787 7.3705 53.824H13.1305C13.7705 55.9573 15.0932 57.664 17.0985 58.944C19.1038 60.2667 21.5145 60.928 24.3305 60.928C27.5305 60.928 30.1332 59.9253 32.1385 57.92C34.1865 55.9147 35.2105 53.0987 35.2105 49.472V42.112C34.0585 44.16 32.3518 45.8667 30.0905 47.232C27.8292 48.5973 25.1838 49.28 22.1545 49.28C19.0398 49.28 16.2025 48.512 13.6425 46.976C11.1252 45.44 9.14116 43.2853 7.6905 40.512C6.23983 37.7387 5.5145 34.5813 5.5145 31.04C5.5145 27.456 6.23983 24.32 7.6905 21.632C9.14116 18.9013 11.1252 16.7893 13.6425 15.296C16.2025 13.8027 19.0398 13.056 22.1545 13.056ZM35.2105 31.104C35.2105 28.4587 34.6772 26.1547 33.6105 24.192C32.5438 22.2293 31.0932 20.736 29.2585 19.712C27.4665 18.6453 25.4825 18.112 23.3065 18.112C21.1305 18.112 19.1465 18.624 17.3545 19.648C15.5625 20.672 14.1332 22.1653 13.0665 24.128C11.9998 26.0907 11.4665 28.3947 11.4665 31.04C11.4665 33.728 11.9998 36.0747 13.0665 38.08C14.1332 40.0427 15.5625 41.5573 17.3545 42.624C19.1465 43.648 21.1305 44.16 23.3065 44.16C25.4825 44.16 27.4665 43.648 29.2585 42.624C31.0932 41.5573 32.5438 40.0427 33.6105 38.08C34.6772 36.0747 35.2105 33.7493 35.2105 31.104ZM50.7485 7.936C49.6392 7.936 48.7005 7.552 47.9325 6.784C47.1645 6.016 46.7805 5.07733 46.7805 3.968C46.7805 2.85867 47.1645 1.92 47.9325 1.152C48.7005 0.384 49.6392 0 50.7485 0C51.8152 0 52.7112 0.384 53.4365 1.152C54.2045 1.92 54.5885 2.85867 54.5885 3.968C54.5885 5.07733 54.2045 6.016 53.4365 6.784C52.7112 7.552 51.8152 7.936 50.7485 7.936ZM53.5645 13.632V48.704H47.7405V13.632H53.5645ZM116.342 13.056C119.371 13.056 122.017 13.7173 124.278 15.04C126.582 16.3627 128.289 18.0267 129.398 20.032V13.632H135.286V49.472C135.286 52.672 134.603 55.5093 133.238 57.984C131.873 60.5013 129.91 62.464 127.35 63.872C124.833 65.28 121.889 65.984 118.518 65.984C113.91 65.984 110.07 64.896 106.998 62.72C103.926 60.544 102.113 57.5787 101.558 53.824H107.318C107.958 55.9573 109.281 57.664 111.286 58.944C113.291 60.2667 115.702 60.928 118.518 60.928C121.718 60.928 124.321 59.9253 126.326 57.92C128.374 55.9147 129.398 53.0987 129.398 49.472V42.112C128.246 44.16 126.539 45.8667 124.278 47.232C122.017 48.5973 119.371 49.28 116.342 49.28C113.227 49.28 110.39 48.512 107.83 46.976C105.313 45.44 103.329 43.2853 101.878 40.512C100.427 37.7387 99.702 34.5813 99.702 31.04C99.702 27.456 100.427 24.32 101.878 21.632C103.329 18.9013 105.313 16.7893 107.83 15.296C110.39 13.8027 113.227 13.056 116.342 13.056ZM129.398 31.104C129.398 28.4587 128.865 26.1547 127.798 24.192C126.731 22.2293 125.281 20.736 123.446 19.712C121.654 18.6453 119.67 18.112 117.494 18.112C115.318 18.112 113.334 18.624 111.542 19.648C109.75 20.672 108.321 22.1653 107.254 24.128C106.187 26.0907 105.654 28.3947 105.654 31.04C105.654 33.728 106.187 36.0747 107.254 38.08C108.321 40.0427 109.75 41.5573 111.542 42.624C113.334 43.648 115.318 44.16 117.494 44.16C119.67 44.16 121.654 43.648 123.446 42.624C125.281 41.5573 126.731 40.0427 127.798 38.08C128.865 36.0747 129.398 33.7493 129.398 31.104ZM147.752 1.344V48.704H141.928V1.344H147.752ZM186.478 29.824C186.478 30.9333 186.414 32.1067 186.286 33.344H158.254C158.467 36.8 159.641 39.5093 161.774 41.472C163.95 43.392 166.574 44.352 169.646 44.352C172.163 44.352 174.254 43.776 175.918 42.624C177.625 41.4293 178.819 39.8507 179.502 37.888H185.774C184.835 41.2587 182.958 44.0107 180.142 46.144C177.326 48.2347 173.827 49.28 169.646 49.28C166.318 49.28 163.331 48.5333 160.686 47.04C158.083 45.5467 156.035 43.4347 154.542 40.704C153.049 37.9307 152.302 34.7307 152.302 31.104C152.302 27.4773 153.027 24.2987 154.478 21.568C155.929 18.8373 157.955 16.7467 160.558 15.296C163.203 13.8027 166.233 13.056 169.646 13.056C172.974 13.056 175.918 13.7813 178.478 15.232C181.038 16.6827 183.001 18.688 184.366 21.248C185.774 23.7653 186.478 26.624 186.478 29.824ZM180.462 28.608C180.462 26.3893 179.971 24.4907 178.99 22.912C178.009 21.2907 176.665 20.0747 174.958 19.264C173.294 18.4107 171.438 17.984 169.39 17.984C166.446 17.984 163.929 18.9227 161.838 20.8C159.79 22.6773 158.617 25.28 158.318 28.608H180.462Z" fill="white"/>
<path d="M79.733 13.056C76.7037 13.056 74.0583 13.7173 71.797 15.04C69.493 16.3627 67.7863 18.0267 66.677 20.032V13.632H60.789V49.472C60.789 52.672 61.4717 55.5093 62.837 57.984C64.2023 60.5013 66.165 62.464 68.725 63.872C71.2423 65.28 74.1863 65.984 77.557 65.984C82.165 65.984 86.005 64.896 89.077 62.72C92.149 60.544 93.9623 57.5787 94.517 53.824H88.757C88.117 55.9573 86.7943 57.664 84.789 58.944C82.7837 60.2667 80.373 60.928 77.557 60.928C74.357 60.928 71.7543 59.9253 69.749 57.92C67.701 55.9147 66.677 53.0987 66.677 49.472V42.112C67.829 44.16 69.5357 45.8667 71.797 47.232C74.0583 48.5973 76.7037 49.28 79.733 49.28C82.8477 49.28 85.685 48.512 88.245 46.976C90.7623 45.44 92.7463 43.2853 94.197 40.512C95.6477 37.7387 96.373 34.5813 96.373 31.04C96.373 27.456 95.6477 24.32 94.197 21.632C92.7463 18.9013 90.7623 16.7893 88.245 15.296C85.685 13.8027 82.8477 13.056 79.733 13.056ZM66.677 31.104C66.677 28.4587 67.2103 26.1547 68.277 24.192C69.3437 22.2293 70.7943 20.736 72.629 19.712C74.421 18.6453 76.405 18.112 78.581 18.112C80.757 18.112 82.741 18.624 84.533 19.648C86.325 20.672 87.7543 22.1653 88.821 24.128C89.8877 26.0907 90.421 28.3947 90.421 31.04C90.421 33.728 89.8877 36.0747 88.821 38.08C87.7543 40.0427 86.325 41.5573 84.533 42.624C82.741 43.648 80.757 44.16 78.581 44.16C76.405 44.16 74.421 43.648 72.629 42.624C70.7943 41.5573 69.3437 40.0427 68.277 38.08C67.2103 36.0747 66.677 33.7493 66.677 31.104Z" fill="white"/>
</svg>
